<?xml version="1.0" standalone="no"?>
<!DOCTYPE svg PUBLIC "-//W3C//DTD SVG 20010904//EN"
 "http://www.w3.org/TR/2001/REC-SVG-20010904/DTD/svg10.dtd">
<svg version="1.0" xmlns="http://www.w3.org/2000/svg"
 width="281.000000pt" height="281.000000pt" viewBox="0 0 281.000000 281.000000"
 preserveAspectRatio="xMidYMid meet">
<metadata>
Created by potrace 1.11, written by Peter Selinger 2001-2013
</metadata>
<g transform="translate(0.000000,281.000000) scale(0.100000,-0.100000)"
fill="#000000" stroke="none">
<path d="M1450 2410 c-10 -6 -7 -10 13 -15 30 -8 83 2 73 13 -11 10 -71 11
-86 2z"/>
<path d="M1605 2376 c-38 -27 31 -85 79 -66 14 5 26 16 26 23 0 35 -74 66
-105 43z"/>
<path d="M1183 2368 c-38 -12 -51 -38 -28 -54 35 -26 115 15 102 50 -7 18 -27
19 -74 4z"/>
<path d="M1318 2324 c-35 -18 -41 -41 -18 -64 32 -32 110 -8 110 35 0 14 -1
25 -3 25 -1 0 -16 4 -33 9 -21 6 -38 4 -56 -5z"/>
<path d="M1860 2336 c0 -6 44 -33 68 -40 35 -11 26 9 -13 27 -34 16 -55 21
-55 13z"/>
<path d="M1774 2269 c-11 -19 18 -59 50 -68 34 -9 66 2 66 24 0 36 -97 74
-116 44z"/>
<path d="M921 2234 c-35 -29 -42 -64 -12 -64 33 0 51 11 67 42 27 52 -5 65
-55 22z"/>
<path d="M1483 2248 c-48 -23 -27 -82 33 -94 24 -5 37 -1 53 15 26 26 27 43 2
65 -24 21 -60 27 -88 14z"/>
<path d="M2030 2242 c0 -13 43 -49 68 -57 34 -10 26 9 -16 39 -40 27 -52 31
-52 18z"/>
<path d="M1034 2218 c-31 -15 -51 -55 -38 -76 16 -25 47 -26 76 -3 32 26 41
57 21 76 -17 17 -29 18 -59 3z"/>
<path d="M1168 2154 c-31 -16 -46 -58 -31 -83 15 -23 66 -25 90 -4 60 52 10
125 -59 87z"/>
<path d="M1971 2153 c-19 -34 27 -83 79 -83 37 0 32 50 -7 75 -35 24 -61 26
-72 8z"/>
<path d="M1673 2135 c-45 -32 -16 -92 46 -97 35 -3 61 17 61 47 0 46 -68 77
-107 50z"/>
<path d="M731 2061 c-31 -39 -39 -61 -22 -61 15 0 61 60 61 81 0 26 -4 24 -39
-20z"/>
<path d="M1355 2069 c-80 -23 -69 -119 13 -119 59 0 95 67 55 102 -28 24 -36
26 -68 17z"/>
<path d="M788 2053 c-28 -32 -37 -57 -27 -76 9 -15 13 -15 37 -3 51 27 68 96
24 96 -10 0 -26 -8 -34 -17z"/>
<path d="M2178 2029 c-31 -17 -6 -73 41 -90 18 -7 28 -6 38 4 32 32 -39 109
-79 86z"/>
<path d="M871 1999 c-29 -31 -32 -58 -10 -80 18 -18 22 -18 48 -4 33 17 54 63
39 88 -13 23 -53 21 -77 -4z"/>
<path d="M1876 2004 c-23 -22 -20 -51 9 -79 28 -28 66 -32 89 -9 23 23 20 42
-13 75 -33 32 -62 37 -85 13z"/>
<path d="M1526 1939 c-33 -26 -34 -62 -1 -94 26 -27 41 -30 80 -15 50 19 50
96 -1 119 -35 16 -47 14 -78 -10z"/>
<path d="M1003 1935 c-12 -8 -25 -29 -28 -47 -6 -26 -3 -35 15 -50 12 -10 29
-18 37 -18 21 0 73 55 73 79 0 45 -55 66 -97 36z"/>
<path d="M2646 1941 c-4 -5 7 -12 23 -16 35 -8 69 -38 77 -69 13 -53 -75 -163
-190 -239 -100 -66 -163 -106 -218 -136 l-55 -30 -11 24 c-6 13 -23 28 -38 31
-38 10 -67 -27 -62 -75 l4 -34 -95 -44 c-162 -74 -283 -123 -305 -123 -9 0
-16 -4 -16 -10 0 -5 -3 -9 -7 -8 -5 1 -46 -11 -93 -27 -47 -16 -87 -29 -90
-30 -3 0 -9 -3 -15 -7 -23 -14 -193 -60 -230 -62 -23 -1 -53 -11 -70 -23 -17
-12 -46 -24 -66 -27 -19 -3 -62 -13 -95 -22 -67 -18 -66 -18 -118 -8 -33 6
-41 4 -55 -14 -9 -12 -29 -24 -46 -26 -16 -3 -41 -8 -55 -11 -55 -13 -76 -14
-103 -3 -22 9 -31 7 -47 -7 -24 -21 -96 -29 -265 -29 -149 1 -224 20 -258 66
-19 26 -20 28 -3 72 24 62 105 144 224 224 98 67 92 81 -17 36 -293 -118 -400
-295 -266 -437 38 -40 128 -81 205 -93 8 -2 38 -6 65 -11 59 -9 344 -8 433 1
37 5 62 4 62 -2 0 -14 57 -35 76 -28 11 4 15 14 12 29 -3 13 0 24 6 24 10 0
29 3 111 18 17 3 36 8 43 10 7 3 18 -6 24 -20 13 -29 59 -49 92 -41 27 7 40
40 25 67 -5 10 -9 20 -9 22 0 4 40 15 88 24 12 2 60 16 107 31 65 22 81 24 70
12 -51 -56 26 -138 90 -96 45 30 42 96 -5 111 -30 10 -17 21 48 41 31 9 62 20
67 24 6 4 21 11 35 15 14 4 43 15 65 25 22 10 81 35 130 55 50 21 94 42 99 46
4 4 23 5 41 2 25 -4 37 0 51 16 45 52 65 68 115 93 30 16 68 37 85 48 l31 20
0 -31 c0 -16 6 -37 15 -45 13 -13 17 -12 41 6 30 23 37 76 15 98 -9 9 -10 15
-2 20 95 60 206 158 298 263 91 105 116 218 60 274 -40 40 -113 60 -128 36z"/>
<path d="M602 1864 c-25 -51 -22 -66 7 -40 22 20 43 71 34 80 -12 12 -20 5
-41 -40z"/>
<path d="M2360 1865 c0 -25 8 -44 26 -62 14 -14 27 -23 30 -20 6 5 -42 117
-50 117 -4 0 -6 -16 -6 -35z"/>
<path d="M2110 1872 c-58 -19 -21 -129 41 -120 34 5 51 44 34 78 -15 29 -52
50 -75 42z"/>
<path d="M663 1862 c-16 -10 -42 -74 -36 -89 8 -22 41 -14 63 14 35 44 14 102
-27 75z"/>
<path d="M1160 1828 c-40 -44 -12 -118 45 -118 33 0 75 42 75 74 0 57 -80 87
-120 44z"/>
<path d="M1742 1797 c-29 -30 -28 -62 3 -92 31 -32 69 -32 100 -1 27 27 25 57
-8 94 -26 29 -68 28 -95 -1z"/>
<path d="M733 1784 c-26 -26 -31 -75 -8 -94 37 -31 100 44 78 93 -14 30 -41
30 -70 1z"/>
<path d="M1382 1719 c-47 -18 -56 -86 -16 -118 35 -28 69 -26 99 3 54 54 -10
142 -83 115z"/>
<path d="M862 1713 c-23 -9 -42 -58 -33 -89 6 -23 14 -30 39 -32 41 -4 72 27
72 71 0 49 -31 69 -78 50z"/>
<path d="M2290 1700 c-14 -27 0 -79 27 -97 19 -13 24 -12 42 6 21 21 21 48 0
89 -15 28 -54 29 -69 2z"/>
<path d="M530 1643 c-22 -28 -24 -83 -5 -90 22 -7 46 24 52 63 7 53 -16 66
-47 27z"/>
<path d="M1975 1646 c-39 -39 -32 -87 16 -111 47 -25 88 4 89 61 0 33 -20 57
-57 68 -17 5 -29 1 -48 -18z"/>
<path d="M1001 1584 c-26 -33 -27 -65 -3 -92 38 -45 106 -25 118 36 5 24 1 36
-19 56 -34 34 -70 33 -96 0z"/>
<path d="M601 1564 c-23 -29 -26 -55 -11 -85 23 -41 80 -3 80 54 0 59 -35 74
-69 31z"/>
<path d="M1580 1553 c-13 -17 -19 -35 -16 -48 3 -11 6 -25 6 -30 0 -17 53 -43
80 -39 57 9 79 83 37 122 -33 31 -80 29 -107 -5z"/>
<path d="M711 1464 c-33 -42 -23 -90 23 -107 26 -10 66 28 66 63 0 33 -26 70
-50 70 -10 0 -28 -12 -39 -26z"/>
<path d="M1206 1459 c-52 -41 -19 -129 48 -129 24 0 65 33 67 53 3 33 -4 54
-27 75 -31 27 -54 28 -88 1z"/>
<path d="M1843 1420 c-26 -11 -43 -40 -43 -74 0 -27 41 -66 70 -66 10 0 29 9
44 21 34 27 35 71 1 104 -26 27 -37 29 -72 15z"/>
<path d="M512 1368 c-26 -26 -6 -108 27 -108 34 0 44 75 13 103 -22 20 -25 20
-40 5z"/>
<path d="M861 1344 c-12 -15 -21 -34 -21 -44 0 -31 39 -70 70 -70 57 0 79 72
35 115 -31 32 -58 32 -84 -1z"/>
<path d="M1434 1323 c-16 -12 -34 -49 -34 -71 0 -23 39 -64 65 -68 61 -9 104
65 68 115 -20 26 -76 40 -99 24z"/>
<path d="M612 1258 c-23 -23 -6 -100 24 -112 21 -8 42 3 49 25 19 58 -36 124
-73 87z"/>
<path d="M1046 1208 c-9 -12 -16 -33 -16 -46 0 -30 43 -72 74 -72 27 0 66 41
66 70 0 10 -9 29 -21 44 -27 34 -81 36 -103 4z"/>
<path d="M758 1138 c-49 -38 1 -132 60 -114 45 14 35 92 -14 115 -30 13 -27
14 -46 -1z"/>
<path d="M2231 1114 c-37 -47 -19 -104 29 -89 29 9 58 70 44 93 -18 28 -49 26
-73 -4z"/>
<path d="M560 1074 c0 -18 44 -103 51 -98 12 7 -1 66 -19 87 -15 16 -32 23
-32 11z"/>
<path d="M1915 1028 c-29 -17 -44 -40 -45 -69 0 -33 17 -49 52 -49 25 0 67 29
69 48 0 4 2 15 4 25 4 20 -27 57 -47 57 -7 0 -22 -6 -33 -12z"/>
<path d="M2367 1013 c-8 -10 -19 -30 -22 -45 -11 -43 19 -36 40 10 10 20 20
40 22 45 9 15 -24 6 -40 -10z"/>
<path d="M2103 912 c-6 -4 -19 -20 -27 -36 -30 -59 22 -89 70 -41 34 34 30 79
-6 83 -14 1 -30 -1 -37 -6z"/>
<path d="M2241 814 c-19 -24 -29 -64 -16 -64 10 0 64 65 65 78 0 21 -28 13
-49 -14z"/>
<path d="M1736 789 c-34 -26 -34 -63 -1 -85 58 -38 137 43 89 90 -21 22 -56
20 -88 -5z"/>
<path d="M1365 728 c-41 -23 -44 -40 -10 -73 30 -31 75 -33 100 -5 15 17 16
24 7 45 -7 14 -23 30 -38 35 -31 12 -34 12 -59 -2z"/>
<path d="M800 711 c0 -14 59 -61 76 -61 22 0 -9 44 -42 58 -30 14 -34 15 -34
3z"/>
<path d="M1027 703 c-27 -26 27 -86 72 -81 37 4 40 40 5 67 -26 21 -64 28 -77
14z"/>
<path d="M1946 689 c-37 -29 -33 -73 6 -77 50 -6 105 75 62 92 -26 10 -40 7
-68 -15z"/>
<path d="M1603 608 c-45 -12 -60 -41 -33 -68 39 -39 135 4 110 50 -12 23 -37
29 -77 18z"/>
<path d="M966 602 c-7 -12 7 -28 41 -46 39 -20 43 -20 43 -2 0 22 -74 64 -84
48z"/>
<path d="M1227 573 c-14 -13 -6 -42 15 -57 29 -21 72 -20 89 0 11 14 10 20
-14 40 -27 23 -76 32 -90 17z"/>
<path d="M1793 518 c-24 -12 -32 -48 -11 -48 26 0 98 34 95 44 -5 15 -57 18
-84 4z"/>
<path d="M1165 480 c27 -12 43 -12 25 0 -8 5 -22 9 -30 9 -10 0 -8 -3 5 -9z"/>
<path d="M1448 459 c-29 -11 -38 -28 -15 -30 51 -5 98 -5 102 1 15 24 -45 44
-87 29z"/>
</g>
</svg>
